<svg width="145" height="15" viewBox="0 0 145 15" fill="none" xmlns="http://www.w3.org/2000/svg">
<path d="M12.0555 3.872C12.4182 4.62933 12.5995 5.472 12.5995 6.4C12.5995 7.328 12.4182 8.17067 12.0555 8.928C11.7035 9.68533 11.2342 10.2933 10.6475 10.752C10.0608 11.2107 9.41551 11.568 8.71151 11.824C8.00751 12.0693 7.29284 12.192 6.56751 12.192C5.84218 12.192 5.12751 12.0693 4.42351 11.824C3.71951 11.568 3.07418 11.2107 2.48751 10.752C1.90084 10.2933 1.42618 9.68533 1.06351 8.928C0.711508 8.17067 0.535508 7.328 0.535508 6.4C0.535508 5.472 0.711508 4.62933 1.06351 3.872C1.42618 3.11467 1.90084 2.50667 2.48751 2.048C3.07418 1.58933 3.71951 1.23733 4.42351 0.992C5.12751 0.736 5.84218 0.608 6.56751 0.608C7.29284 0.608 8.00751 0.736 8.71151 0.992C9.41551 1.23733 10.0608 1.58933 10.6475 2.048C11.2342 2.50667 11.7035 3.11467 12.0555 3.872ZM8.96751 9.088C8.29551 9.45067 7.56484 9.632 6.77551 9.632C5.94351 9.632 5.19684 9.36533 4.53551 8.832C3.88484 8.29867 3.55951 7.53067 3.55951 6.528C3.55951 5.42933 3.90084 4.59733 4.58351 4.032C5.26618 3.456 6.06084 3.168 6.96751 3.168C7.72484 3.168 8.39151 3.34933 8.96751 3.712V4.688C8.41284 4.336 7.80484 4.16 7.14351 4.16C6.43951 4.16 5.84751 4.34133 5.36751 4.704C4.88751 5.06667 4.64751 5.65867 4.64751 6.48C4.64751 7.23733 4.87684 7.78667 5.33551 8.128C5.79418 8.46933 6.36484 8.64 7.04751 8.64C7.69818 8.64 8.33818 8.46933 8.96751 8.128V9.088ZM1.51151 4.096C1.19151 4.77867 1.03151 5.54667 1.03151 6.4C1.03151 7.25333 1.19151 8.02667 1.51151 8.72C1.84218 9.40267 2.27418 9.95733 2.80751 10.384C3.34084 10.8107 3.92751 11.1413 4.56751 11.376C5.21818 11.6 5.88484 11.712 6.56751 11.712C7.25018 11.712 7.91151 11.6 8.55151 11.376C9.20218 11.1413 9.79418 10.8107 10.3275 10.384C10.8608 9.95733 11.2875 9.40267 11.6075 8.72C11.9382 8.02667 12.1035 7.25333 12.1035 6.4C12.1035 5.54667 11.9382 4.77867 11.6075 4.096C11.2875 3.40267 10.8608 2.84267 10.3275 2.416C9.79418 1.98933 9.20218 1.664 8.55151 1.44C7.91151 1.20533 7.25018 1.088 6.56751 1.088C5.88484 1.088 5.21818 1.20533 4.56751 1.44C3.92751 1.664 3.34084 1.98933 2.80751 2.416C2.27418 2.84267 1.84218 3.40267 1.51151 4.096ZM18.7871 0.799999H26.3711V2.08H20.1311V5.936H25.9071V7.216H20.1311V12H18.7871V0.799999ZM28.4358 0.799999H29.7798V12H28.4358V0.799999ZM32.8694 12H31.2694L35.6054 6.24L31.5094 0.799999H33.1094L36.4054 5.168L39.6854 0.799999H41.2854L37.2054 6.24L41.5254 12H39.9254L36.4054 7.312L32.8694 12ZM46.8035 0.799999H50.6275C53.7955 0.799999 55.3795 2.00533 55.3795 4.416C55.3795 6.82667 53.7955 8.032 50.6275 8.032H48.1475V12H46.8035V0.799999ZM54.0195 4.416C54.0195 3.95733 53.9342 3.57333 53.7635 3.264C53.5929 2.944 53.3475 2.704 53.0275 2.544C52.7182 2.37333 52.3769 2.256 52.0035 2.192C51.6302 2.11733 51.1929 2.08 50.6915 2.08H48.1475V6.752H50.6915C51.7262 6.752 52.5369 6.58133 53.1235 6.24C53.7209 5.89867 54.0195 5.29067 54.0195 4.416ZM56.1674 8.16C56.1674 6.90133 56.5514 5.91467 57.3194 5.2C58.0981 4.48533 58.9888 4.128 59.9914 4.128C60.9301 4.128 61.7034 4.36267 62.3114 4.832C62.9301 5.30133 63.3354 5.88267 63.5274 6.576C63.7194 7.25867 63.7301 7.97333 63.5594 8.72H57.4474C57.5221 9.47733 57.8581 10.048 58.4554 10.432C59.0528 10.816 59.7728 11.008 60.6154 11.008C61.5541 11.008 62.3968 10.8 63.1434 10.384V11.632C62.4288 12.0053 61.5221 12.192 60.4234 12.192C59.2074 12.192 58.1941 11.8453 57.3834 11.152C56.5728 10.4587 56.1674 9.46133 56.1674 8.16ZM62.4234 7.6C62.4554 7.376 62.4394 7.14133 62.3754 6.896C62.3114 6.65067 62.1941 6.40533 62.0234 6.16C61.8634 5.91467 61.6128 5.712 61.2714 5.552C60.9301 5.392 60.5301 5.312 60.0714 5.312C59.3781 5.312 58.7754 5.51467 58.2634 5.92C57.7621 6.32533 57.4901 6.88533 57.4474 7.6H62.4234ZM66.6382 12H65.4222V4.32H66.8142L69.6142 8.576L72.4142 4.32H73.8062V12H72.5902V6.208L70.0942 10H69.1342L66.6382 6.208V12ZM76.8526 11.12C76.0419 10.3947 75.6366 9.408 75.6366 8.16C75.6366 6.912 76.0419 5.93067 76.8526 5.216C77.6632 4.49067 78.6232 4.128 79.7326 4.128C80.8526 4.128 81.8126 4.49067 82.6126 5.216C83.4232 5.93067 83.8286 6.912 83.8286 8.16C83.8286 9.408 83.4232 10.3947 82.6126 11.12C81.8126 11.8347 80.8526 12.192 79.7326 12.192C78.6232 12.192 77.6632 11.8347 76.8526 11.12ZM81.7486 10.224C82.2819 9.712 82.5486 9.024 82.5486 8.16C82.5486 7.296 82.2819 6.61333 81.7486 6.112C81.2152 5.6 80.5432 5.344 79.7326 5.344C78.9219 5.344 78.2499 5.6 77.7166 6.112C77.1832 6.61333 76.9166 7.296 76.9166 8.16C76.9166 9.024 77.1832 9.712 77.7166 10.224C78.2499 10.7253 78.9219 10.976 79.7326 10.976C80.5432 10.976 81.2152 10.7253 81.7486 10.224ZM86.9369 12H85.6569V4.32H86.9369V7.568H91.3849V4.32H92.6649V12H91.3849V8.752H86.9369V12ZM98.2243 12H96.9443V5.504H94.1123V4.32H101.04V5.504H98.2243V12ZM101.818 14.4H100.778L101.658 10.72H103.018L101.818 14.4ZM109.077 1.984C110.091 1.28 111.253 0.927999 112.565 0.927999C113.696 0.927999 114.597 1.184 115.269 1.696C115.941 2.208 116.277 2.92267 116.277 3.84C116.277 4.27733 116.192 4.688 116.021 5.072C115.861 5.456 115.616 5.808 115.285 6.128C114.965 6.448 114.651 6.72 114.341 6.944C114.043 7.15733 113.664 7.39733 113.205 7.664C113.152 7.696 112.987 7.792 112.709 7.952C112.443 8.112 112.272 8.21333 112.197 8.256C112.133 8.29867 111.984 8.39467 111.749 8.544C111.525 8.68267 111.376 8.784 111.301 8.848C111.237 8.912 111.12 9.01333 110.949 9.152C110.789 9.29067 110.677 9.408 110.613 9.504C110.56 9.6 110.485 9.72267 110.389 9.872C110.304 10.0107 110.245 10.1493 110.213 10.288C110.181 10.4267 110.165 10.576 110.165 10.736L116.357 10.72V12H108.693V11.36C108.693 10.7627 108.789 10.224 108.981 9.744C109.173 9.25333 109.445 8.83733 109.797 8.496C110.16 8.144 110.517 7.85067 110.869 7.616C111.221 7.37067 111.632 7.10933 112.101 6.832C112.208 6.77867 112.288 6.736 112.341 6.704C113.312 6.13867 113.947 5.70667 114.245 5.408C114.704 4.93867 114.933 4.41067 114.933 3.824C114.933 3.29067 114.715 2.88533 114.277 2.608C113.851 2.32 113.243 2.176 112.453 2.176C111.301 2.176 110.176 2.56 109.077 3.328V1.984ZM119.201 10.64C118.391 9.60533 117.985 8.24533 117.985 6.56C117.985 4.87467 118.391 3.51467 119.201 2.48C120.012 1.44533 121.207 0.927999 122.785 0.927999C124.375 0.927999 125.575 1.44533 126.385 2.48C127.196 3.504 127.601 4.864 127.601 6.56C127.601 8.256 127.196 9.62133 126.385 10.656C125.575 11.68 124.375 12.192 122.785 12.192C121.207 12.192 120.012 11.6747 119.201 10.64ZM125.377 9.792C125.953 9.03467 126.241 7.95733 126.241 6.56C126.241 5.16267 125.953 4.09067 125.377 3.344C124.812 2.58667 123.948 2.208 122.785 2.208C121.623 2.208 120.759 2.58667 120.193 3.344C119.628 4.09067 119.345 5.16267 119.345 6.56C119.345 7.95733 119.628 9.03467 120.193 9.792C120.759 10.5387 121.623 10.912 122.785 10.912C123.948 10.912 124.812 10.5387 125.377 9.792ZM131.9 1.12H132.892V10.72H134.924V12H129.26V10.72H131.548V2.544L129.26 3.408V2.128L131.9 1.12ZM137.471 6.256C138.506 5.56267 139.642 5.216 140.879 5.216C141.871 5.216 142.74 5.52 143.487 6.128C144.234 6.72533 144.607 7.55733 144.607 8.624C144.607 9.744 144.234 10.6187 143.487 11.248C142.751 11.8773 141.823 12.192 140.703 12.192C139.167 12.192 138.015 11.7173 137.247 10.768C136.49 9.808 136.111 8.464 136.111 6.736C136.111 4.816 136.564 3.37067 137.471 2.4C138.388 1.41867 139.583 0.927999 141.055 0.927999C142.004 0.927999 142.884 1.136 143.695 1.552V2.832C142.906 2.416 142.036 2.208 141.087 2.208C140.084 2.208 139.247 2.53333 138.575 3.184C137.914 3.824 137.546 4.848 137.471 6.256ZM137.487 7.6C137.69 9.82933 138.73 10.944 140.607 10.944C141.396 10.944 142.031 10.7627 142.511 10.4C143.002 10.0373 143.247 9.46667 143.247 8.688C143.247 7.89867 142.996 7.33333 142.495 6.992C141.994 6.64 141.343 6.464 140.543 6.464C139.359 6.464 138.34 6.84267 137.487 7.6Z" fill="#666666"/>
</svg>
